<svg id="Layer_1" enable-background="new 0 0 512 512" height="512" viewBox="0 0 512 512" width="512" xmlns="http://www.w3.org/2000/svg"><g><path d="m245.002 5.499c-50.208 0-96.881 15.114-135.74 41.024l-14.096 397.807h-.013c41.426 32.074 93.404 51.173 149.849 51.173 135.311 0 245.002-109.691 245.002-245.002s-109.691-245.002-245.002-245.002z" fill="#4fabf7"/><path d="m512 330.456v-230.914c0-29.16-23.858-53.018-53.019-53.019h-349.719c-25.016 16.681-46.796 37.831-64.182 62.324v.301h351.275c29.16 0 53.019 23.858 53.019 53.019v221.307h9.606c29.162 0 53.02-23.858 53.02-53.018z" fill="#e9efff"/><path d="m195.498 46.523h-86.236c-25.016 16.681-46.796 37.831-64.182 62.324v.301h150.341c.398-1.139.662-1.769.662-1.769-29.912-29.912-4.824-56.727-.585-60.856z" fill="#bec8f7"/><path d="m398.125 107.379h-351.98c-29.03 40.265-46.145 89.692-46.145 143.122 0 78.87 37.278 149.021 95.166 193.829h109.744l24.42-9.882 24.421 9.882h23.653c10.665 0 20.58 5.123 27.094 13.567 23.18 30.045 57.237 48.491 93.579 48.604 14.299.045 20.642-20.318 9.366-30.249-6.043-5.324-11.488-11.182-16.344-17.465-4.559-5.897-.427-14.457 7.027-14.457 29.16 0 53.019-23.858 53.019-53.019v-230.913c-.001-29.161-23.859-53.019-53.02-53.019z" fill="#3c58a0"/><path d="m196.083 107.379h-149.938c-29.03 40.265-46.145 89.692-46.145 143.122 0 78.87 37.278 149.021 95.166 193.829h109.744l24.42-9.882v-262.03c-55.42-12.03-33.247-65.039-33.247-65.039z" fill="#2a428c"/><path d="m304.638 155.627h-29.884c-38.573 0-69.843 31.27-69.843 69.843v47.122c0 1.761-1.428 3.189-3.188 3.189h-47.7c-1.761 0-3.188 1.427-3.188 3.189v42.463c0 1.761 1.428 3.189 3.188 3.189h47.7c1.761 0 3.188 1.428 3.188 3.189v116.519h48.84v-116.52c0-1.761 1.428-3.189 3.189-3.189h47.699c1.761 0 3.189-1.428 3.189-3.189v-42.463c0-1.761-1.428-3.189-3.189-3.189h-47.699c-1.761 0-3.189-1.428-3.189-3.189v-47.121c0-11.6 9.404-21.004 21.004-21.004h29.883c1.761 0 3.189-1.428 3.189-3.189v-42.463c-.001-1.76-1.428-3.187-3.189-3.187z" fill="#e9efff"/><path d="m253.751 272.592v-47.121c0-11.6 9.404-21.004 21.004-21.004h29.883c1.761 0 3.189-1.428 3.189-3.189v-42.463c0-1.761-1.428-3.189-3.189-3.189h-29.884c-38.573 0-69.843 31.27-69.843 69.843v47.122c0 1.761-1.428 3.189-3.188 3.189h-47.7c-1.761 0-3.189 1.427-3.189 3.189v42.463c0 1.761 1.428 3.189 3.189 3.189h47.7c1.761 0 3.188 1.428 3.188 3.189v116.52h48.84v-116.52c0-1.761 1.428-3.189 3.189-3.189-24.319-24.319 0-48.84 0-48.84-1.762 0-3.189-1.428-3.189-3.189z" fill="#bec8f7"/></g></svg>