<svg id="Layer_1" enable-background="new 0 0 512 512" height="512" viewBox="0 0 512 512" width="512" xmlns="http://www.w3.org/2000/svg"><g><path d="m245.002 5.499c-49.811 0-96.14 14.879-134.814 40.415l-15.145 398.332c41.444 32.125 93.464 51.258 149.959 51.258 135.311 0 245.002-109.691 245.002-245.002s-109.691-245.003-245.002-245.003z" fill="#ffdd40"/><path d="m458.911 45.914h-348.723c-25.327 16.723-47.376 38.01-64.95 62.708h350.964c29.199 0 53.089 23.89 53.089 53.089v221.6h9.619c29.199 0 53.089-23.89 53.089-53.089v-231.219c.001-29.199-23.889-53.089-53.088-53.089z" fill="#fc90ce"/><path d="m178 45.914h-67.812c-25.327 16.723-47.376 38.01-64.95 62.708h131.062c1.007-1.146 1.7-1.772 1.7-1.772-32.044-32.044-.01-60.928 0-60.936z" fill="#f964b2"/><path d="m397.974 106.85h-351.444c-29.263 40.361-46.53 89.986-46.53 143.651 0 78.818 37.221 148.935 95.043 193.747h182.05c10.679 0 20.607 5.129 27.13 13.585 23.21 30.085 57.313 48.555 93.703 48.668 14.318.045 20.67-20.345 9.379-30.289-6.052-5.331-11.503-11.197-16.366-17.488-4.565-5.905-.428-14.476 7.036-14.476 29.199 0 53.089-23.89 53.089-53.089v-231.22c-.001-29.199-23.891-53.089-53.09-53.089z" fill="#f964b2"/><path d="m320.333 284.782 11.667-9.233v-67.42s-8.5-46.681-56.5-46.681-83.5 0-83.5 0l-9.096 11.087s-9.904 27.247 15.429 39.247 85.999 63.768 85.999 63.768 9.001 25.232 36.001 9.232z" fill="#fc90ce"/><path d="m178 106.85h-131.469c-29.264 40.361-46.531 89.986-46.531 143.651 0 78.818 37.221 148.935 95.043 193.747h160.957c-27-19.2-5-40.01-5-40.01v-11.789s-33 0-86.5 0-60.982-49.86-60.982-49.86 0-63.806 0-121.24 56.482-62.399 56.482-62.399h18v-12.09c-21.043-21.042-.002-40.008 0-40.01z" fill="#ea349c"/><g><path d="m217.294 342.588c-36.965 0-67.039-30.073-67.039-67.039s30.073-67.039 67.039-67.039 67.039 30.073 67.039 67.039-30.074 67.039-67.039 67.039zm0-108.403c-22.809 0-41.364 18.556-41.364 41.364s18.556 41.364 41.364 41.364c22.809 0 41.364-18.556 41.364-41.364s-18.555-41.364-41.364-41.364z" fill="#e9efff"/></g><g><path d="m271.981 404.238h-109.373c-40.805 0-74.002-33.197-74.002-74.002v-109.374c0-40.805 33.197-74.002 74.002-74.002h109.373c40.805 0 74.002 33.197 74.002 74.002v109.374c0 40.805-33.197 74.002-74.002 74.002zm-109.373-231.703c-26.649 0-48.328 21.679-48.328 48.327v109.374c0 26.648 21.679 48.328 48.328 48.328h109.373c26.648 0 48.328-21.679 48.328-48.328v-109.374c0-26.648-21.679-48.327-48.328-48.327z" fill="#e9efff"/></g><g><ellipse cx="284.714" cy="208.129" fill="#e9efff" rx="13.219" ry="13.219" transform="matrix(.974 -.229 .229 .974 -40.02 70.55)"/></g><g fill="#bec8f7"><path d="m162.608 146.86c-40.805 0-74.002 33.197-74.002 74.002v109.374c0 40.805 33.197 74.002 74.002 74.002h88.392c-14.855-14.855 5-25.674 5-25.674h-93.392c-26.649 0-48.328-21.679-48.328-48.328v-109.374c0-26.648 21.679-48.327 48.328-48.327h20.296c-14.906-9.378-4.904-25.675-4.904-25.675z"/><path d="m234.986 312.93c-5.367 2.551-11.365 3.983-17.692 3.983-22.809 0-41.364-18.556-41.364-41.364 0-18.543 12.265-34.274 29.108-39.51-17.446-7.29-8.019-23.63-7.461-24.565-27.372 8.44-47.321 33.97-47.321 64.075 0 36.965 30.073 67.039 67.039 67.039 10.6 0 20.627-2.483 29.547-6.882-15.688-4.551-13.824-16.83-11.856-22.776z"/></g></g></svg>